<svg width="1432" height="211" viewBox="0 0 1432 211" fill="none" xmlns="http://www.w3.org/2000/svg">
<mask id="path-1-outside-1_79_592" maskUnits="userSpaceOnUse" x="-0.519989" y="-0.686035" width="1433" height="212" fill="black">
<rect fill="white" x="-0.519989" y="-0.686035" width="1433" height="212"/>
<path d="M271.8 9.04396L188.925 207.944L136.65 65.909L84.375 207.944L1.50001 9.04396H26.235L84.375 152.099L137.16 6.74896L189.945 152.099L248.085 9.04396H271.8ZM284.132 201.314V9.04396H386.132V29.444H307.082V89.879H385.877V110.279H307.082V180.914H386.387V201.314H284.132ZM487.008 99.314C510.723 104.924 526.533 122.519 526.533 147.254C526.533 178.619 503.328 201.314 463.293 201.314H414.078V9.04396H455.133C490.068 9.04396 514.293 30.209 514.293 59.279C514.293 80.444 500.268 93.704 487.008 99.314ZM437.028 28.169V93.449H454.113C474.513 93.449 490.578 82.229 490.578 60.809C490.578 39.389 474.513 28.169 454.113 28.169H437.028ZM437.028 112.319V182.189H462.783C488.538 182.189 503.838 169.439 503.838 147.254C503.838 125.069 488.538 112.319 462.783 112.319H437.028ZM545.009 9.04396H587.594C648.539 9.04396 693.164 47.804 693.164 105.179C693.164 162.554 648.539 201.314 587.594 201.314H545.009V9.04396ZM669.704 105.179C669.704 58.514 634.514 29.444 587.594 29.444H567.959V180.914H587.594C634.514 180.914 669.704 151.844 669.704 105.179ZM843.705 201.314L821.775 152.609H730.995L709.065 201.314H686.115L776.64 2.41396L867.165 201.314H843.705ZM776.385 51.119L739.92 132.209H812.85L776.385 51.119ZM879.347 9.04396H921.932C982.877 9.04396 1027.5 47.804 1027.5 105.179C1027.5 162.554 982.877 201.314 921.932 201.314H879.347V9.04396ZM1004.04 105.179C1004.04 58.514 968.852 29.444 921.932 29.444H902.297V180.914H921.932C968.852 180.914 1004.04 151.844 1004.04 105.179ZM1157.94 145.469C1157.94 177.599 1130.65 204.374 1095.97 204.374C1061.29 204.374 1036.3 183.209 1030.69 150.569L1051.86 145.469C1057.47 169.949 1072.77 184.484 1095.97 184.484C1116.63 184.484 1135.24 169.949 1135.24 146.744C1135.24 99.059 1044.97 118.694 1044.97 58.004C1044.97 27.914 1067.67 5.98396 1099.03 5.98396C1125.04 5.98396 1142.64 20.774 1150.29 39.899L1130.91 49.844C1125.04 35.564 1114.84 26.129 1098.27 26.129C1080.67 26.129 1067.16 37.859 1067.16 56.474C1067.16 99.314 1157.94 81.719 1157.94 145.469ZM1180.38 63.614H1158.96C1158.71 32.759 1184.21 6.23895 1216.34 6.23895C1251.27 6.23895 1273.2 30.974 1273.2 62.084C1273.2 94.214 1247.96 121.754 1234.44 137.564L1196.96 180.914H1275.75V201.314H1153.1L1219.4 124.049C1237.25 103.139 1251.27 85.289 1251.27 63.104C1251.27 44.489 1239.03 27.404 1216.85 27.404C1195.43 27.404 1180.13 44.234 1180.38 63.614ZM1361.14 182.444C1389.19 182.444 1407.8 163.574 1407.8 127.364V9.04396H1430.75V128.384C1430.75 178.109 1399.9 204.374 1361.14 204.374C1322.38 204.374 1291.52 178.109 1291.52 128.384V9.04396H1314.47V127.364C1314.47 163.574 1333.09 182.444 1361.14 182.444Z"/>
</mask>
<path d="M271.8 9.04396L188.925 207.944L136.65 65.909L84.375 207.944L1.50001 9.04396H26.235L84.375 152.099L137.16 6.74896L189.945 152.099L248.085 9.04396H271.8ZM284.132 201.314V9.04396H386.132V29.444H307.082V89.879H385.877V110.279H307.082V180.914H386.387V201.314H284.132ZM487.008 99.314C510.723 104.924 526.533 122.519 526.533 147.254C526.533 178.619 503.328 201.314 463.293 201.314H414.078V9.04396H455.133C490.068 9.04396 514.293 30.209 514.293 59.279C514.293 80.444 500.268 93.704 487.008 99.314ZM437.028 28.169V93.449H454.113C474.513 93.449 490.578 82.229 490.578 60.809C490.578 39.389 474.513 28.169 454.113 28.169H437.028ZM437.028 112.319V182.189H462.783C488.538 182.189 503.838 169.439 503.838 147.254C503.838 125.069 488.538 112.319 462.783 112.319H437.028ZM545.009 9.04396H587.594C648.539 9.04396 693.164 47.804 693.164 105.179C693.164 162.554 648.539 201.314 587.594 201.314H545.009V9.04396ZM669.704 105.179C669.704 58.514 634.514 29.444 587.594 29.444H567.959V180.914H587.594C634.514 180.914 669.704 151.844 669.704 105.179ZM843.705 201.314L821.775 152.609H730.995L709.065 201.314H686.115L776.64 2.41396L867.165 201.314H843.705ZM776.385 51.119L739.92 132.209H812.85L776.385 51.119ZM879.347 9.04396H921.932C982.877 9.04396 1027.5 47.804 1027.5 105.179C1027.5 162.554 982.877 201.314 921.932 201.314H879.347V9.04396ZM1004.04 105.179C1004.04 58.514 968.852 29.444 921.932 29.444H902.297V180.914H921.932C968.852 180.914 1004.04 151.844 1004.04 105.179ZM1157.94 145.469C1157.94 177.599 1130.65 204.374 1095.97 204.374C1061.29 204.374 1036.3 183.209 1030.69 150.569L1051.86 145.469C1057.47 169.949 1072.77 184.484 1095.97 184.484C1116.63 184.484 1135.24 169.949 1135.24 146.744C1135.24 99.059 1044.97 118.694 1044.97 58.004C1044.97 27.914 1067.67 5.98396 1099.03 5.98396C1125.04 5.98396 1142.64 20.774 1150.29 39.899L1130.91 49.844C1125.04 35.564 1114.84 26.129 1098.27 26.129C1080.67 26.129 1067.16 37.859 1067.16 56.474C1067.16 99.314 1157.94 81.719 1157.94 145.469ZM1180.38 63.614H1158.96C1158.71 32.759 1184.21 6.23895 1216.34 6.23895C1251.27 6.23895 1273.2 30.974 1273.2 62.084C1273.2 94.214 1247.96 121.754 1234.44 137.564L1196.96 180.914H1275.75V201.314H1153.1L1219.4 124.049C1237.25 103.139 1251.27 85.289 1251.27 63.104C1251.27 44.489 1239.03 27.404 1216.85 27.404C1195.43 27.404 1180.13 44.234 1180.38 63.614ZM1361.14 182.444C1389.19 182.444 1407.8 163.574 1407.8 127.364V9.04396H1430.75V128.384C1430.75 178.109 1399.9 204.374 1361.14 204.374C1322.38 204.374 1291.52 178.109 1291.52 128.384V9.04396H1314.47V127.364C1314.47 163.574 1333.09 182.444 1361.14 182.444Z" fill="white"/>
<path d="M271.8 9.04396L272.723 9.42858L273.3 8.04396H271.8V9.04396ZM188.925 207.944L187.987 208.289L188.867 210.682L189.848 208.329L188.925 207.944ZM136.65 65.909L137.588 65.5636L136.65 63.0137L135.712 65.5636L136.65 65.909ZM84.375 207.944L83.4519 208.329L84.4327 210.682L85.3135 208.289L84.375 207.944ZM1.50001 9.04396V8.04396H1.09971e-05L0.576934 9.42858L1.50001 9.04396ZM26.235 9.04396L27.1614 8.66745L26.908 8.04396H26.235V9.04396ZM84.375 152.099L83.4486 152.475L84.4275 154.884L85.315 152.44L84.375 152.099ZM137.16 6.74896L138.1 6.40762L137.16 3.81938L136.22 6.40762L137.16 6.74896ZM189.945 152.099L189.005 152.44L189.893 154.884L190.871 152.475L189.945 152.099ZM248.085 9.04396V8.04396H247.412L247.159 8.66745L248.085 9.04396ZM271.8 9.04396L270.877 8.65935L188.002 207.559L188.925 207.944L189.848 208.329L272.723 9.42858L271.8 9.04396ZM188.925 207.944L189.863 207.599L137.588 65.5636L136.65 65.909L135.712 66.2543L187.987 208.289L188.925 207.944ZM136.65 65.909L135.712 65.5636L83.4366 207.599L84.375 207.944L85.3135 208.289L137.588 66.2543L136.65 65.909ZM84.375 207.944L85.2981 207.559L2.42309 8.65935L1.50001 9.04396L0.576934 9.42858L83.4519 208.329L84.375 207.944ZM1.50001 9.04396V10.044H26.235V9.04396V8.04396H1.50001V9.04396ZM26.235 9.04396L25.3086 9.42047L83.4486 152.475L84.375 152.099L85.3014 151.722L27.1614 8.66745L26.235 9.04396ZM84.375 152.099L85.315 152.44L138.1 7.09031L137.16 6.74896L136.22 6.40762L83.4351 151.758L84.375 152.099ZM137.16 6.74896L136.22 7.09031L189.005 152.44L189.945 152.099L190.885 151.758L138.1 6.40762L137.16 6.74896ZM189.945 152.099L190.871 152.475L249.011 9.42047L248.085 9.04396L247.159 8.66745L189.019 151.722L189.945 152.099ZM248.085 9.04396V10.044H271.8V9.04396V8.04396H248.085V9.04396ZM284.132 201.314H283.132V202.314H284.132V201.314ZM284.132 9.04396V8.04396H283.132V9.04396H284.132ZM386.132 9.04396H387.132V8.04396H386.132V9.04396ZM386.132 29.444V30.444H387.132V29.444H386.132ZM307.082 29.444V28.444H306.082V29.444H307.082ZM307.082 89.879H306.082V90.879H307.082V89.879ZM385.877 89.879H386.877V88.879H385.877V89.879ZM385.877 110.279V111.279H386.877V110.279H385.877ZM307.082 110.279V109.279H306.082V110.279H307.082ZM307.082 180.914H306.082V181.914H307.082V180.914ZM386.387 180.914H387.387V179.914H386.387V180.914ZM386.387 201.314V202.314H387.387V201.314H386.387ZM284.132 201.314H285.132V9.04396H284.132H283.132V201.314H284.132ZM284.132 9.04396V10.044H386.132V9.04396V8.04396H284.132V9.04396ZM386.132 9.04396H385.132V29.444H386.132H387.132V9.04396H386.132ZM386.132 29.444V28.444H307.082V29.444V30.444H386.132V29.444ZM307.082 29.444H306.082V89.879H307.082H308.082V29.444H307.082ZM307.082 89.879V90.879H385.877V89.879V88.879H307.082V89.879ZM385.877 89.879H384.877V110.279H385.877H386.877V89.879H385.877ZM385.877 110.279V109.279H307.082V110.279V111.279H385.877V110.279ZM307.082 110.279H306.082V180.914H307.082H308.082V110.279H307.082ZM307.082 180.914V181.914H386.387V180.914V179.914H307.082V180.914ZM386.387 180.914H385.387V201.314H386.387H387.387V180.914H386.387ZM386.387 201.314V200.314H284.132V201.314V202.314H386.387V201.314ZM487.008 99.314L486.618 98.393L483.804 99.5836L486.778 100.287L487.008 99.314ZM414.078 201.314H413.078V202.314H414.078V201.314ZM414.078 9.04396V8.04396H413.078V9.04396H414.078ZM437.028 28.169V27.169H436.028V28.169H437.028ZM437.028 93.449H436.028V94.449H437.028V93.449ZM437.028 112.319V111.319H436.028V112.319H437.028ZM437.028 182.189H436.028V183.189H437.028V182.189ZM487.008 99.314L486.778 100.287C510.096 105.803 525.533 123.036 525.533 147.254H526.533H527.533C527.533 122.002 511.35 104.045 487.238 98.3408L487.008 99.314ZM526.533 147.254H525.533C525.533 162.677 519.835 175.91 509.262 185.298C498.68 194.695 483.125 200.314 463.293 200.314V201.314V202.314C483.496 202.314 499.562 196.586 510.59 186.794C521.628 176.993 527.533 163.196 527.533 147.254H526.533ZM463.293 201.314V200.314H414.078V201.314V202.314H463.293V201.314ZM414.078 201.314H415.078V9.04396H414.078H413.078V201.314H414.078ZM414.078 9.04396V10.044H455.133V9.04396V8.04396H414.078V9.04396ZM455.133 9.04396V10.044C489.667 10.044 513.293 30.9012 513.293 59.279H514.293H515.293C515.293 29.5167 490.469 8.04396 455.133 8.04396V9.04396ZM514.293 59.279H513.293C513.293 79.9304 499.624 92.8908 486.618 98.393L487.008 99.314L487.398 100.235C500.913 94.5171 515.293 80.9575 515.293 59.279H514.293ZM437.028 28.169H436.028V93.449H437.028H438.028V28.169H437.028ZM437.028 93.449V94.449H454.113V93.449V92.449H437.028V93.449ZM454.113 93.449V94.449C464.486 94.449 473.848 91.5968 480.636 85.9291C487.448 80.2422 491.578 71.7922 491.578 60.809H490.578H489.578C489.578 71.2457 485.676 79.1157 479.355 84.3939C473.01 89.6911 464.14 92.449 454.113 92.449V93.449ZM490.578 60.809H491.578C491.578 49.8257 487.448 41.3757 480.636 35.6889C473.848 30.0211 464.486 27.169 454.113 27.169V28.169V29.169C464.14 29.169 473.01 31.9268 479.355 37.2241C485.676 42.5022 489.578 50.3722 489.578 60.809H490.578ZM454.113 28.169V27.169H437.028V28.169V29.169H454.113V28.169ZM437.028 112.319H436.028V182.189H437.028H438.028V112.319H437.028ZM437.028 182.189V183.189H462.783V182.189V181.189H437.028V182.189ZM462.783 182.189V183.189C475.813 183.189 486.334 179.964 493.615 173.804C500.918 167.624 504.838 158.592 504.838 147.254H503.838H502.838C502.838 158.101 499.108 166.536 492.323 172.277C485.514 178.039 475.508 181.189 462.783 181.189V182.189ZM503.838 147.254H504.838C504.838 135.916 500.918 126.884 493.615 120.704C486.334 114.544 475.813 111.319 462.783 111.319V112.319V113.319C475.508 113.319 485.514 116.469 492.323 122.23C499.108 127.972 502.838 136.407 502.838 147.254H503.838ZM462.783 112.319V111.319H437.028V112.319V113.319H462.783V112.319ZM545.009 9.04396V8.04396H544.009V9.04396H545.009ZM545.009 201.314H544.009V202.314H545.009V201.314ZM567.959 29.444V28.444H566.959V29.444H567.959ZM567.959 180.914H566.959V181.914H567.959V180.914ZM545.009 9.04396V10.044H587.594V9.04396V8.04396H545.009V9.04396ZM587.594 9.04396V10.044C617.856 10.044 643.999 19.6655 662.565 36.3398C681.122 53.0063 692.164 76.7666 692.164 105.179H693.164H694.164C694.164 76.2163 682.893 51.9091 663.901 34.8518C644.918 17.8024 618.277 8.04396 587.594 8.04396V9.04396ZM693.164 105.179H692.164C692.164 133.591 681.122 157.352 662.565 174.018C643.999 190.692 617.856 200.314 587.594 200.314V201.314V202.314C618.277 202.314 644.918 192.555 663.901 175.506C682.893 158.449 694.164 134.142 694.164 105.179H693.164ZM587.594 201.314V200.314H545.009V201.314V202.314H587.594V201.314ZM545.009 201.314H546.009V9.04396H545.009H544.009V201.314H545.009ZM669.704 105.179H670.704C670.704 81.5783 661.797 62.3675 646.91 49.0664C632.035 35.7757 611.257 28.444 587.594 28.444V29.444V30.444C610.85 30.444 631.128 37.6473 645.577 50.5578C660.015 63.4579 668.704 82.1146 668.704 105.179H669.704ZM587.594 29.444V28.444H567.959V29.444V30.444H587.594V29.444ZM567.959 29.444H566.959V180.914H567.959H568.959V29.444H567.959ZM567.959 180.914V181.914H587.594V180.914V179.914H567.959V180.914ZM587.594 180.914V181.914C611.257 181.914 632.035 174.582 646.91 161.292C661.797 147.99 670.704 128.78 670.704 105.179H669.704H668.704C668.704 128.243 660.015 146.9 645.577 159.8C631.128 172.711 610.85 179.914 587.594 179.914V180.914ZM843.705 201.314L842.793 201.725L843.059 202.314H843.705V201.314ZM821.775 152.609L822.687 152.198L822.422 151.609H821.775V152.609ZM730.995 152.609V151.609H730.349L730.083 152.198L730.995 152.609ZM709.065 201.314V202.314H709.712L709.977 201.725L709.065 201.314ZM686.115 201.314L685.205 200.9L684.561 202.314H686.115V201.314ZM776.64 2.41396L777.55 1.99972L776.64 -9.15527e-05L775.73 1.99972L776.64 2.41396ZM867.165 201.314V202.314H868.719L868.075 200.9L867.165 201.314ZM776.385 51.119L777.297 50.7088L776.385 48.6807L775.473 50.7088L776.385 51.119ZM739.92 132.209L739.008 131.799L738.374 133.209H739.92V132.209ZM812.85 132.209V133.209H814.396L813.762 131.799L812.85 132.209ZM843.705 201.314L844.617 200.903L822.687 152.198L821.775 152.609L820.863 153.02L842.793 201.725L843.705 201.314ZM821.775 152.609V151.609H730.995V152.609V153.609H821.775V152.609ZM730.995 152.609L730.083 152.198L708.153 200.903L709.065 201.314L709.977 201.725L731.907 153.02L730.995 152.609ZM709.065 201.314V200.314H686.115V201.314V202.314H709.065V201.314ZM686.115 201.314L687.025 201.728L777.55 2.8282L776.64 2.41396L775.73 1.99972L685.205 200.9L686.115 201.314ZM776.64 2.41396L775.73 2.8282L866.255 201.728L867.165 201.314L868.075 200.9L777.55 1.99972L776.64 2.41396ZM867.165 201.314V200.314H843.705V201.314V202.314H867.165V201.314ZM776.385 51.119L775.473 50.7088L739.008 131.799L739.92 132.209L740.832 132.619L777.297 51.5291L776.385 51.119ZM739.92 132.209V133.209H812.85V132.209V131.209H739.92V132.209ZM812.85 132.209L813.762 131.799L777.297 50.7088L776.385 51.119L775.473 51.5291L811.938 132.619L812.85 132.209ZM879.347 9.04396V8.04396H878.347V9.04396H879.347ZM879.347 201.314H878.347V202.314H879.347V201.314ZM902.297 29.444V28.444H901.297V29.444H902.297ZM902.297 180.914H901.297V181.914H902.297V180.914ZM879.347 9.04396V10.044H921.932V9.04396V8.04396H879.347V9.04396ZM921.932 9.04396V10.044C952.195 10.044 978.338 19.6655 996.904 36.3398C1015.46 53.0063 1026.5 76.7666 1026.5 105.179H1027.5H1028.5C1028.5 76.2163 1017.23 51.9091 998.24 34.8518C979.257 17.8024 952.615 8.04396 921.932 8.04396V9.04396ZM1027.5 105.179H1026.5C1026.5 133.591 1015.46 157.352 996.904 174.018C978.338 190.692 952.195 200.314 921.932 200.314V201.314V202.314C952.615 202.314 979.257 192.555 998.24 175.506C1017.23 158.449 1028.5 134.142 1028.5 105.179H1027.5ZM921.932 201.314V200.314H879.347V201.314V202.314H921.932V201.314ZM879.347 201.314H880.347V9.04396H879.347H878.347V201.314H879.347ZM1004.04 105.179H1005.04C1005.04 81.5783 996.136 62.3675 981.249 49.0664C966.374 35.7757 945.596 28.444 921.932 28.444V29.444V30.444C945.189 30.444 965.466 37.6473 979.916 50.5578C994.354 63.4579 1003.04 82.1146 1003.04 105.179H1004.04ZM921.932 29.444V28.444H902.297V29.444V30.444H921.932V29.444ZM902.297 29.444H901.297V180.914H902.297H903.297V29.444H902.297ZM902.297 180.914V181.914H921.932V180.914V179.914H902.297V180.914ZM921.932 180.914V181.914C945.596 181.914 966.374 174.582 981.249 161.292C996.136 147.99 1005.04 128.78 1005.04 105.179H1004.04H1003.04C1003.04 128.243 994.354 146.9 979.916 159.8C965.466 172.711 945.189 179.914 921.932 179.914V180.914ZM1030.69 150.569L1030.46 149.597L1029.55 149.816L1029.71 150.738L1030.69 150.569ZM1051.86 145.469L1052.83 145.246L1052.61 144.26L1051.62 144.497L1051.86 145.469ZM1150.29 39.899L1150.75 40.7887L1151.56 40.373L1151.22 39.5276L1150.29 39.899ZM1130.91 49.8439L1129.98 50.2239L1130.4 51.2305L1131.37 50.7336L1130.91 49.8439ZM1157.94 145.469H1156.94C1156.94 177.009 1130.14 203.374 1095.97 203.374V204.374V205.374C1131.17 205.374 1158.94 178.189 1158.94 145.469H1157.94ZM1095.97 204.374V203.374C1061.77 203.374 1037.2 182.547 1031.68 150.4L1030.69 150.569L1029.71 150.738C1035.4 183.871 1060.82 205.374 1095.97 205.374V204.374ZM1030.69 150.569L1030.93 151.541L1052.09 146.441L1051.86 145.469L1051.62 144.497L1030.46 149.597L1030.69 150.569ZM1051.86 145.469L1050.88 145.692C1053.72 158.078 1059.03 168.035 1066.65 174.899C1074.28 181.775 1084.15 185.484 1095.97 185.484V184.484V183.484C1084.59 183.484 1075.21 179.926 1067.99 173.414C1060.75 166.891 1055.61 157.339 1052.83 145.246L1051.86 145.469ZM1095.97 184.484V185.484C1117.08 185.484 1136.24 170.595 1136.24 146.744H1135.24H1134.24C1134.24 169.303 1116.18 183.484 1095.97 183.484V184.484ZM1135.24 146.744H1136.24C1136.24 134.418 1130.37 126.424 1121.71 120.471C1113.12 114.573 1101.68 110.611 1090.47 106.317C1079.17 101.994 1068.05 97.3219 1059.74 90.0164C1051.49 82.7612 1045.97 72.8796 1045.97 58.004H1044.97H1043.97C1043.97 73.4733 1049.75 83.8961 1058.42 91.5186C1067.03 99.0907 1078.48 103.87 1089.75 108.185C1101.1 112.529 1112.23 116.392 1120.57 122.12C1128.83 127.794 1134.24 135.227 1134.24 146.744H1135.24ZM1044.97 58.004H1045.97C1045.97 28.501 1068.19 6.98396 1099.03 6.98396V5.98396V4.98396C1067.15 4.98396 1043.97 27.3269 1043.97 58.004H1044.97ZM1099.03 5.98396V6.98396C1124.6 6.98396 1141.85 21.4939 1149.36 40.2704L1150.29 39.899L1151.22 39.5276C1143.43 20.0541 1125.49 4.98396 1099.03 4.98396V5.98396ZM1150.29 39.899L1149.83 39.0093L1130.45 48.9543L1130.91 49.8439L1131.37 50.7336L1150.75 40.7887L1150.29 39.899ZM1130.91 49.8439L1131.83 49.464C1128.86 42.2121 1124.75 36.1204 1119.22 31.8406C1113.67 27.5507 1106.76 25.129 1098.27 25.129V26.129V27.129C1106.35 27.129 1112.83 29.4247 1117.99 33.4223C1123.17 37.43 1127.1 43.1958 1129.98 50.2239L1130.91 49.8439ZM1098.27 26.129V25.129C1089.25 25.129 1081.22 28.1377 1075.43 33.5932C1069.64 39.0555 1066.16 46.912 1066.16 56.474H1067.16H1068.16C1068.16 47.4209 1071.44 40.1049 1076.8 35.0484C1082.17 29.9852 1089.69 27.129 1098.27 27.129V26.129ZM1067.16 56.474H1066.16C1066.16 67.6422 1072.12 74.8504 1080.81 80.3334C1089.43 85.7707 1100.92 89.6308 1112.18 94.0608C1123.52 98.5211 1134.71 103.58 1143.07 111.423C1151.38 119.22 1156.94 129.81 1156.94 145.469H1157.94H1158.94C1158.94 129.253 1153.15 118.136 1144.44 109.964C1135.78 101.837 1124.27 96.6643 1112.91 92.1996C1101.48 87.7046 1090.28 83.9466 1081.88 78.642C1073.54 73.3831 1068.16 66.7258 1068.16 56.474H1067.16ZM1180.38 63.614V64.614H1181.4L1181.38 63.6008L1180.38 63.614ZM1158.96 63.614L1157.96 63.6222L1157.97 64.614H1158.96V63.614ZM1234.44 137.564L1235.2 138.218L1235.2 138.214L1234.44 137.564ZM1196.96 180.914L1196.2 180.26L1194.77 181.914H1196.96V180.914ZM1275.75 180.914H1276.75V179.914H1275.75V180.914ZM1275.75 201.314V202.314H1276.75V201.314H1275.75ZM1153.1 201.314L1152.34 200.663L1150.92 202.314H1153.1V201.314ZM1219.4 124.049L1220.16 124.7L1220.16 124.698L1219.4 124.049ZM1180.38 63.614V62.614H1158.96V63.614V64.614H1180.38V63.614ZM1158.96 63.614L1159.96 63.6057C1159.71 33.3024 1184.77 7.23895 1216.34 7.23895V6.23895V5.23895C1183.65 5.23895 1157.7 32.2155 1157.96 63.6222L1158.96 63.614ZM1216.34 6.23895V7.23895C1233.56 7.23895 1247.51 13.3301 1257.16 23.1944C1266.81 33.0635 1272.2 46.7662 1272.2 62.084H1273.2H1274.2C1274.2 46.2917 1268.63 32.0719 1258.59 21.7961C1248.53 11.5153 1234.05 5.23895 1216.34 5.23895V6.23895ZM1273.2 62.084H1272.2C1272.2 77.8886 1265.99 92.6198 1258.04 105.416C1250.09 118.215 1240.46 128.987 1233.68 136.914L1234.44 137.564L1235.2 138.214C1241.94 130.331 1251.69 119.428 1259.74 106.472C1267.79 93.5131 1274.2 78.4093 1274.2 62.084H1273.2ZM1234.44 137.564L1233.69 136.91L1196.2 180.26L1196.96 180.914L1197.71 181.568L1235.2 138.218L1234.44 137.564ZM1196.96 180.914V181.914H1275.75V180.914V179.914H1196.96V180.914ZM1275.75 180.914H1274.75V201.314H1275.75H1276.75V180.914H1275.75ZM1275.75 201.314V200.314H1153.1V201.314V202.314H1275.75V201.314ZM1153.1 201.314L1153.86 201.965L1220.16 124.7L1219.4 124.049L1218.64 123.398L1152.34 200.663L1153.1 201.314ZM1219.4 124.049L1220.16 124.698C1237.97 103.839 1252.27 85.7149 1252.27 63.104H1251.27H1250.27C1250.27 84.863 1236.53 102.439 1218.64 123.4L1219.4 124.049ZM1251.27 63.104H1252.27C1252.27 53.5842 1249.14 44.4144 1243.13 37.611C1237.1 30.7916 1228.22 26.404 1216.85 26.404V27.404V28.404C1227.66 28.404 1235.99 32.5588 1241.63 38.9357C1247.28 45.3286 1250.27 54.0087 1250.27 63.104H1251.27ZM1216.85 27.404V26.404C1194.86 26.404 1179.12 43.7004 1179.38 63.6271L1180.38 63.614L1181.38 63.6008C1181.14 44.7675 1196 28.404 1216.85 28.404V27.404ZM1407.8 9.04396V8.04396H1406.8V9.04396H1407.8ZM1430.75 9.04396H1431.75V8.04396H1430.75V9.04396ZM1291.52 9.04396V8.04396H1290.52V9.04396H1291.52ZM1314.47 9.04396H1315.47V8.04396H1314.47V9.04396ZM1361.14 182.444V183.444C1375.4 183.444 1387.36 178.64 1395.74 169.145C1404.11 159.665 1408.8 145.631 1408.8 127.364H1407.8H1406.8C1406.8 145.307 1402.19 158.813 1394.24 167.821C1386.3 176.813 1374.93 181.444 1361.14 181.444V182.444ZM1407.8 127.364H1408.8V9.04396H1407.8H1406.8V127.364H1407.8ZM1407.8 9.04396V10.044H1430.75V9.04396V8.04396H1407.8V9.04396ZM1430.75 9.04396H1429.75V128.384H1430.75H1431.75V9.04396H1430.75ZM1430.75 128.384H1429.75C1429.75 153.035 1422.11 171.764 1409.77 184.325C1397.42 196.889 1380.29 203.374 1361.14 203.374V204.374V205.374C1380.74 205.374 1398.42 198.727 1411.19 185.727C1423.97 172.724 1431.75 153.458 1431.75 128.384H1430.75ZM1361.14 204.374V203.374C1341.98 203.374 1324.85 196.889 1312.51 184.325C1300.16 171.764 1292.52 153.035 1292.52 128.384H1291.52H1290.52C1290.52 153.458 1298.3 172.724 1311.08 185.727C1323.85 198.727 1341.53 205.374 1361.14 205.374V204.374ZM1291.52 128.384H1292.52V9.04396H1291.52H1290.52V128.384H1291.52ZM1291.52 9.04396V10.044H1314.47V9.04396V8.04396H1291.52V9.04396ZM1314.47 9.04396H1313.47V127.364H1314.47H1315.47V9.04396H1314.47ZM1314.47 127.364H1313.47C1313.47 145.631 1318.17 159.665 1326.54 169.145C1334.92 178.64 1346.88 183.444 1361.14 183.444V182.444V181.444C1347.35 181.444 1335.97 176.813 1328.03 167.821C1320.08 158.813 1315.47 145.307 1315.47 127.364H1314.47Z" fill="url(#paint0_linear_79_592)" mask="url(#path-1-outside-1_79_592)"/>
<defs>
<linearGradient id="paint0_linear_79_592" x1="743.48" y1="-122.686" x2="743.48" y2="157.814" gradientUnits="userSpaceOnUse">
<stop/>
<stop offset="0.447717" stop-color="#7A7A7A"/>
<stop offset="1" stop-color="white"/>
</linearGradient>
</defs>
</svg>
